Coordinates
version=1
nRows=27
nColumns=12
inDegrees=yes

Units are S.I. units (second, meters, Newtons, ...)
Angles are in degrees

endheader
time	SC_y	SC_z	SC_x	AC_y	AC_z	AC_x	GH_y	GH_z	GH_yy	EL_x	PS_y
       0.0              -26.46          29.05          61.77          43.92         -1.065          3.897          -29.4          7.682          145.5          24.15          149.9
   0.02134              -26.46          29.05          61.76          43.92         -1.067          3.897          -29.4          7.692          145.5          24.15          149.9
   0.04268              -26.46          29.06          61.76          43.92         -1.069          3.897          -29.4          7.701          145.4          24.15          149.9
   0.06402              -26.47          29.06          61.76          43.92         -1.071          3.898          -29.4          7.712          145.4          24.15          149.9
   0.08536              -26.47          29.06          61.76          43.92         -1.073          3.898          -29.4          7.723          145.4          24.15          149.9
    0.1067              -26.47          29.06          61.75          43.92         -1.076          3.898         -29.41          7.735          145.3          24.15          149.9
     0.128              -26.48          29.06          61.75          43.92         -1.078          3.899         -29.41          7.748          145.3          24.15          149.9
    0.1494              -26.48          29.06          61.74          43.92         -1.081          3.899         -29.41          7.761          145.2          24.15          149.9
    0.1707              -26.49          29.07          61.74          43.92         -1.084          3.899         -29.41          7.776          145.2          24.15          149.9
    0.1921               -26.5          29.07          61.73          43.93         -1.087            3.9         -29.41          7.792          145.1          24.15          149.8
    0.2134               -26.5          29.07          61.73          43.93          -1.09            3.9         -29.41          7.809          145.1          24.15          149.8
    0.2347              -26.51          29.07          61.72          43.93         -1.094          3.901         -29.41          7.827          145.0          24.15          149.8
    0.2561              -26.52          29.08          61.72          43.93         -1.097          3.902         -29.42          7.846          145.0          24.15          149.8
    0.2774              -26.52          29.08          61.71          43.93         -1.101          3.902         -29.42          7.867          144.9          24.14          149.8
    0.2988              -26.53          29.08           61.7          43.93         -1.106          3.903         -29.42           7.89          144.8          24.14          149.8
    0.3201              -26.54          29.09           61.7          43.93         -1.111          3.904         -29.42          7.915          144.7          24.14          149.7
    0.3414              -26.55          29.09          61.69          43.93         -1.116          3.904         -29.43          7.942          144.6          24.14          149.7
    0.3628              -26.56           29.1          61.68          43.94         -1.122          3.905         -29.43          7.971          144.5          24.14          149.7
    0.3841              -26.58           29.1          61.67          43.94         -1.128          3.906         -29.43          8.003          144.4          24.14          149.7
    0.4055              -26.59           29.1          61.66          43.94         -1.135          3.907         -29.44          8.038          144.3          24.13          149.6
    0.4268               -26.6          29.11          61.65          43.94         -1.142          3.908         -29.44          8.076          144.2          24.13          149.6
    0.4481              -26.62          29.12          61.63          43.94          -1.15           3.91         -29.44          8.119          144.0          24.13          149.6
    0.4695              -26.64          29.12          61.62          43.95          -1.16          3.911         -29.45          8.165          143.9          24.13          149.5
    0.4908              -26.66          29.13           61.6          43.95          -1.17          3.912         -29.46          8.217          143.7          24.12          149.5
    0.5122              -26.68          29.14          61.58          43.95         -1.181          3.914         -29.46          8.275          143.5          24.12          149.5
    0.5335               -26.7          29.15          61.56          43.96         -1.193          3.916         -29.47          8.339          143.3          24.12          149.4
    0.5548              -26.73          29.16          61.54          43.96         -1.207          3.918         -29.48          8.411          143.0          24.11          149.4
